<svg xmlns="http://www.w3.org/2000/svg" width="1em" height="1em" viewBox="0 0 512 512"><linearGradient id="SVG8VGZfeUp" x1="29.563" x2="29.418" y1="107.274" y2="208.961" gradientTransform="translate(272.363 -277.956)scale(3.7794)" gradientUnits="userSpaceOnUse"><stop offset="0" stop-color="#afccfb"/><stop offset="1" stop-color="#8bb5f8"/></linearGradient><path fill="url(#SVG8VGZfeUp)" d="m256 256l110.9 64L256 512c141.4 0 256-114.6 256-256c0-46.6-12.5-90.3-34.3-128H256z"/><linearGradient id="SVGi9saKdTR" x1="-96.977" x2="-96.886" y1=".511" y2="1.996" gradientTransform="matrix(231.6257 0 0 231.6247 22710.69 -116.223)" gradientUnits="userSpaceOnUse"><stop offset="0" stop-color="#1972e7"/><stop offset="1" stop-color="#1969d5"/></linearGradient><path fill="url(#SVGi9saKdTR)" d="M256 0C161.2 0 78.6 51.5 34.3 128l110.8 192L256 256V128h221.7C433.4 51.5 350.7 0 256 0"/><linearGradient id="SVGREkTJdqU" x1="-96.448" x2="-94.697" y1="-.234" y2=".777" gradientTransform="rotate(60 -9213.684 16059.277)scale(189.8637 189.864)" gradientUnits="userSpaceOnUse"><stop offset="0" stop-color="#659cf6"/><stop offset="1" stop-color="#4285f4"/></linearGradient><path fill="url(#SVGREkTJdqU)" d="M0 256c0 141.4 114.6 256 256 256l110.9-192L256 256l-110.9 64L34.3 128C12.5 165.7 0 209.4 0 256"/><path fill="#fff" d="M384 256c0 70.7-57.3 128-128 128s-128-57.3-128-128s57.3-128 128-128s128 57.3 128 128"/><linearGradient id="SVGsbzv3cDc" x1="-4.47" x2="-4.189" y1="113.868" y2="168.799" gradientTransform="translate(272.363 -277.956)scale(3.7794)" gradientUnits="userSpaceOnUse"><stop offset="0" stop-color="#3680f0"/><stop offset="1" stop-color="#2678ec"/></linearGradient><path fill="url(#SVGsbzv3cDc)" d="M360 256c0 57.4-46.6 104-104 104s-104-46.6-104-104s46.6-104 104-104s104 46.6 104 104"/></svg>